<svg xmlns="http://www.w3.org/2000/svg" viewBox="1.699 1.631 19.772 19.847">
  <!-- Baha'i 9-pointed star - Travis Avery, Noun Project -->
  <path d="M11.5,3.48029005 L9.86707145,6.23402656 C9.74619801,6.437865 9.49883302,6.52885196 9.27468556,6.45192074 L6.25338496,5.414959 L6.76953271,8.59284101 C6.80718408,8.8246576 6.67842221,9.05143482 6.4600597,9.13788926 L3.4533676,10.3283036 L5.8859769,12.4198707 C6.06475776,12.5735871 6.11185819,12.8313093 5.99900337,13.0383241 L4.42725354,15.9214579 L7.62386698,15.9270008 C7.86471473,15.9274184 8.07103871,16.0994803 8.1147113,16.3363358 L8.70947825,19.5620159 L11.1773193,17.4770613 C11.3636425,17.3196462 11.6363575,17.3196462 11.8226807,17.4770613 L14.2905217,19.5620159 L14.8852887,16.3363358 C14.9289613,16.0994803 15.1352853,15.9274184 15.376133,15.9270008 L18.5727465,15.9214579 L17.0009966,13.0383241 C16.8881418,12.8313093 16.9352422,12.5735871 17.1140231,12.4198707 L19.5466324,10.3283036 L16.5399403,9.13788926 C16.3215778,9.05143482 16.1928159,8.8246576 16.2304673,8.59284101 L16.746615,5.414959 L13.7253144,6.45192074 C13.501167,6.52885196 13.253802,6.437865 13.1329285,6.23402656 L11.5,3.48029005 Z M9.21446299,5.3739917 L11.0699285,2.24497344 C11.2636165,1.91834219 11.7363835,1.91834219 11.9300715,2.24497344 L13.785537,5.3739917 L17.2116856,4.19807926 C17.5690519,4.07542508 17.9281055,4.37821709 17.8675327,4.75115899 L17.2820118,8.35616644 L20.6840597,9.70311074 C21.0337251,9.84155081 21.1111381,10.3019466 20.8259769,10.5471293 L18.0724866,12.9145911 L19.8530034,16.1806759 C20.0344569,16.5135245 19.7939622,16.9193419 19.414867,16.9199992 L15.7933689,16.9262788 L15.1177113,20.5906642 C15.0480968,20.9682142 14.5965827,21.1297021 14.3033193,20.8819387 L11.5,18.5135554 L8.69668074,20.8819387 C8.40341733,21.1297021 7.95190324,20.9682142 7.8822887,20.5906642 L7.20663109,16.9262788 L3.58513302,16.9199992 C3.2060378,16.9193419 2.96554309,16.5135245 3.14699663,16.1806759 L4.92751342,12.9145911 L2.1740231,10.5471293 C1.88886186,10.3019466 1.96627494,9.84155081 2.3159403,9.70311074 L5.71798824,8.35616644 L5.13246729,4.75115899 C5.07189452,4.37821709 5.43094815,4.07542508 5.78831444,4.19807926 L9.21446299,5.3739917 Z" fill="currentColor"/>
</svg>