<svg xmlns="http://www.w3.org/2000/svg" viewBox="0 0 120 120">
  <defs>
    <!-- Gradient for ocean depth effect -->
    <linearGradient id="oceanGradient" x1="0%" y1="0%" x2="100%" y2="100%">
      <stop offset="0%" style="stop-color:#0ea5e9"/>
      <stop offset="50%" style="stop-color:#0284c7"/>
      <stop offset="100%" style="stop-color:#0369a1"/>
    </linearGradient>
    <!-- Subtle inner glow -->
    <filter id="glow">
      <feGaussianBlur stdDeviation="2" result="coloredBlur"/>
      <feMerge>
        <feMergeNode in="coloredBlur"/>
        <feMergeNode in="SourceGraphic"/>
      </feMerge>
    </filter>
  </defs>

  <!-- Background circle with ocean gradient -->
  <circle cx="60" cy="60" r="56" fill="url(#oceanGradient)"/>

  <!-- Stylized waves representing ocean/knowledge flow -->
  <g fill="none" stroke="rgba(255,255,255,0.3)" stroke-width="2" stroke-linecap="round">
    <path d="M20 75 Q35 65, 50 75 T80 75 T100 75"/>
    <path d="M15 85 Q30 75, 45 85 T75 85 T105 85"/>
  </g>

  <!-- Open book / magnifying glass fusion symbol -->
  <g transform="translate(60,52)" filter="url(#glow)">
    <!-- Book pages forming a lens shape -->
    <path d="M-22 0 Q-22 -18, 0 -22 Q22 -18, 22 0 Q22 18, 0 22 Q-22 18, -22 0"
          fill="none" stroke="white" stroke-width="3"/>

    <!-- Center spine / focal point -->
    <line x1="0" y1="-18" x2="0" y2="18" stroke="white" stroke-width="2" opacity="0.7"/>

    <!-- Book pages as rays -->
    <g stroke="white" stroke-width="1.5" opacity="0.8">
      <line x1="-15" y1="-12" x2="-8" y2="-6"/>
      <line x1="-15" y1="12" x2="-8" y2="6"/>
      <line x1="15" y1="-12" x2="8" y2="-6"/>
      <line x1="15" y1="12" x2="8" y2="6"/>
    </g>

    <!-- Magnifying glass handle -->
    <line x1="16" y1="16" x2="28" y2="28" stroke="white" stroke-width="4" stroke-linecap="round"/>
  </g>

  <!-- Sparkle/AI dots representing intelligence -->
  <g fill="white">
    <circle cx="32" cy="35" r="2" opacity="0.9"/>
    <circle cx="88" cy="40" r="1.5" opacity="0.7"/>
    <circle cx="45" cy="28" r="1" opacity="0.6"/>
  </g>
</svg>